<svg id="svg" version="1.1" xmlns="http://www.w3.org/2000/svg" xmlns:xlink="http://www.w3.org/1999/xlink" width="400" height="266.6666666666667" viewBox="0, 0, 400,266.6666666666667"><g id="svgg"><path id="path0" d="M56.889 75.346 C 50.769 76.192,38.154 79.690,34.401 81.582 C 33.950 81.810,32.850 82.241,31.957 82.540 C 29.117 83.490,26.120 84.594,25.438 84.939 C 25.075 85.123,24.378 85.401,23.889 85.556 C 22.023 86.149,16.719 88.856,14.154 90.524 C 12.877 91.355,8.214 94.807,8.000 95.080 C 7.939 95.158,7.389 95.671,6.778 96.220 C 4.432 98.326,3.818 100.345,4.885 102.437 C 5.490 103.623,5.373 103.608,13.875 103.645 C 21.602 103.678,24.242 103.937,25.333 104.769 C 25.517 104.909,26.167 105.265,26.778 105.561 C 30.322 107.277,30.667 107.673,30.667 110.031 C 30.667 112.533,30.272 113.579,27.993 117.111 C 27.639 117.661,27.144 118.461,26.894 118.889 C 26.644 119.317,26.339 119.817,26.216 120.000 C 25.781 120.649,23.070 125.678,22.743 126.444 C 22.375 127.306,21.898 132.893,22.117 133.777 C 22.271 134.397,23.059 135.333,23.428 135.334 C 23.559 135.334,23.833 136.192,24.036 137.240 C 24.487 139.563,24.680 139.790,27.240 141.003 C 30.553 142.572,30.075 142.513,40.667 142.651 L 50.333 142.778 51.889 143.532 C 54.402 144.750,54.221 144.286,54.232 149.534 L 54.242 154.111 54.748 152.550 C 58.013 142.475,70.541 133.961,84.778 132.143 C 89.476 131.543,90.387 132.039,90.125 135.056 C 89.083 147.032,88.960 147.264,83.471 147.575 C 79.141 147.820,75.077 149.423,72.501 151.901 C 70.243 154.074,71.005 155.397,75.854 157.719 C 83.724 161.488,87.088 166.989,85.432 173.381 C 85.021 174.968,85.031 174.985,86.322 174.791 C 87.485 174.617,87.333 174.999,88.005 170.556 C 89.681 159.480,97.169 127.558,98.374 126.353 C 99.250 125.477,100.292 125.333,105.765 125.333 L 110.923 125.333 111.573 125.983 C 112.393 126.803,112.405 126.633,111.239 130.570 C 109.026 138.039,106.000 149.641,103.996 158.333 C 102.981 162.735,101.087 171.832,101.170 171.902 C 101.199 171.927,102.911 171.334,104.976 170.585 L 108.729 169.222 109.889 164.444 C 110.527 161.817,112.371 154.267,113.988 147.667 C 116.897 135.790,118.595 128.653,119.106 126.153 C 119.778 122.869,121.824 122.146,129.121 122.613 C 133.662 122.904,134.610 123.495,133.906 125.593 C 133.729 126.122,130.373 138.356,126.448 152.778 C 118.553 181.796,119.174 179.956,117.111 180.432 C 116.561 180.559,113.976 181.180,111.366 181.813 L 106.621 182.963 107.144 183.382 C 108.640 184.582,113.692 186.317,116.989 186.764 C 117.542 186.839,118.120 186.946,118.275 187.002 C 118.538 187.098,121.367 187.549,124.667 188.022 C 129.331 188.690,132.081 188.885,136.889 188.888 C 139.761 188.889,143.461 188.989,145.111 189.109 C 150.310 189.487,152.358 189.568,160.111 189.705 C 164.267 189.779,169.242 189.765,171.167 189.674 L 174.667 189.509 174.667 188.658 C 174.667 188.158,175.592 185.117,176.906 181.294 C 186.146 154.424,195.018 131.459,201.850 116.725 C 202.770 114.741,203.455 113.080,203.373 113.034 C 203.290 112.988,202.939 112.882,202.592 112.800 C 202.246 112.717,201.746 112.440,201.481 112.184 C 200.826 111.551,198.159 110.340,196.667 109.997 C 195.994 109.843,194.344 109.340,193.000 108.879 C 187.443 106.976,184.637 106.018,182.111 105.160 C 180.644 104.663,177.394 103.539,174.889 102.662 C 172.383 101.786,167.433 100.086,163.889 98.883 C 157.077 96.573,155.698 96.073,152.667 94.808 C 150.694 93.985,146.188 92.259,143.333 91.232 C 142.417 90.903,141.317 90.505,140.889 90.348 C 140.461 90.191,139.761 89.939,139.333 89.788 C 138.118 89.358,130.016 86.693,128.778 86.317 C 128.167 86.131,127.317 85.848,126.889 85.687 C 125.912 85.322,125.517 85.183,120.222 83.340 C 117.839 82.511,114.439 81.316,112.667 80.685 C 110.894 80.054,108.644 79.285,107.667 78.975 C 106.689 78.666,105.489 78.273,105.000 78.103 C 101.840 77.003,93.652 75.626,87.246 75.117 C 81.993 74.699,60.388 74.862,56.889 75.346 M212.314 81.838 L 211.691 83.787 211.234 83.233 C 210.233 82.017,209.179 81.788,204.556 81.784 C 199.834 81.780,198.947 81.935,198.125 82.912 L 197.556 83.590 197.556 88.684 L 197.556 93.778 195.389 93.776 C 194.197 93.775,192.017 93.893,190.545 94.038 C 187.966 94.292,187.809 94.282,186.285 93.783 C 181.328 92.158,181.369 97.184,186.339 100.438 C 186.624 100.625,187.508 101.359,188.302 102.069 C 191.264 104.716,198.353 105.930,200.921 104.229 C 201.732 103.691,202.238 103.546,203.737 103.421 C 205.354 103.286,205.755 103.157,207.226 102.296 L 208.887 101.323 210.122 98.804 C 210.801 97.419,211.372 96.071,211.392 95.809 C 211.412 95.547,211.505 95.333,211.598 95.333 C 211.810 95.333,261.328 107.421,266.667 108.776 C 268.806 109.319,270.631 109.766,270.722 109.770 C 270.814 109.774,270.889 103.053,270.889 94.833 L 270.889 79.889 241.913 79.889 L 212.937 79.889 212.314 81.838 M255.254 88.698 C 257.956 90.129,261.333 93.013,261.333 93.888 C 261.333 94.062,261.733 94.601,262.222 95.085 C 264.697 97.536,260.532 98.946,253.889 97.908 C 252.789 97.736,251.089 97.526,250.111 97.441 C 249.133 97.356,248.057 97.144,247.720 96.969 C 247.383 96.795,246.524 96.472,245.813 96.250 C 245.101 96.029,243.527 95.244,242.315 94.506 C 241.103 93.768,239.493 92.855,238.738 92.476 C 236.787 91.497,236.210 90.410,236.917 89.041 C 237.605 87.711,237.139 87.778,245.682 87.778 L 253.518 87.778 255.254 88.698 M194.119 114.025 C 196.314 114.578,196.557 115.425,195.664 119.402 C 193.968 126.952,193.530 127.352,187.074 127.270 C 185.037 127.244,183.305 127.287,183.226 127.367 C 182.654 127.939,177.010 149.673,173.338 165.444 C 170.685 176.836,171.467 175.892,164.519 176.097 L 159.371 176.249 158.630 175.586 C 157.657 174.716,157.675 173.732,158.763 168.333 C 160.253 160.940,167.156 130.566,167.667 129.157 C 167.744 128.946,167.581 128.901,167.052 128.989 C 155.742 130.859,155.998 131.010,157.323 123.276 C 158.181 118.269,159.062 117.490,165.322 116.202 C 169.437 115.355,175.579 114.738,186.000 114.124 C 192.419 113.745,192.981 113.739,194.119 114.025 M153.646 120.424 C 154.638 121.358,154.594 121.990,153.229 126.323 C 149.158 139.245,144.659 157.054,141.757 171.743 C 140.611 177.541,140.497 177.637,134.595 177.745 C 132.251 177.788,129.816 177.838,129.184 177.856 C 125.765 177.954,125.838 177.232,131.891 151.000 C 137.855 125.151,138.755 121.723,139.835 120.714 C 140.907 119.713,152.628 119.467,153.646 120.424 M54.237 159.711 C 54.208 162.820,55.331 165.911,57.224 167.931 C 57.669 168.406,59.937 170.000,60.168 170.000 C 60.236 170.000,60.601 170.231,60.979 170.513 C 62.185 171.414,63.453 171.926,67.951 173.332 C 69.812 173.914,69.941 173.865,69.594 172.709 C 69.182 171.334,68.089 170.356,64.556 168.201 C 57.572 163.943,55.492 162.034,54.533 159.000 L 54.252 158.111 54.237 159.711 " stroke="none" fill="#0cd3cb" fill-rule="evenodd"></path><path id="path1" d="M241.444 71.032 C 230.338 71.592,225.881 72.667,222.829 75.522 C 221.914 76.378,219.778 79.409,219.778 79.852 C 219.778 79.933,230.721 80.000,244.096 80.000 L 268.414 80.000 268.580 79.500 C 269.454 76.860,267.713 72.845,265.067 71.401 C 264.374 71.022,247.014 70.752,241.444 71.032 M237.507 88.167 C 236.012 89.881,236.421 91.314,238.738 92.476 C 239.493 92.855,241.103 93.768,242.315 94.506 C 243.527 95.244,245.101 96.029,245.813 96.250 C 246.524 96.472,247.383 96.795,247.720 96.969 C 248.057 97.144,249.133 97.356,250.111 97.441 C 251.089 97.526,252.789 97.736,253.889 97.908 C 260.532 98.946,264.697 97.536,262.222 95.085 C 261.733 94.601,261.333 94.062,261.333 93.888 C 261.333 93.013,257.956 90.129,255.254 88.698 L 253.518 87.778 245.682 87.778 C 238.497 87.778,237.818 87.810,237.507 88.167 M211.218 96.389 C 210.999 96.969,210.100 98.894,209.220 100.667 C 207.663 103.803,206.198 106.991,201.152 118.222 C 193.795 134.596,185.916 155.095,176.896 181.324 C 174.350 188.728,174.217 189.544,175.444 190.250 C 178.040 191.742,195.537 193.320,198.752 192.352 C 201.170 191.624,201.482 191.140,203.126 185.556 C 204.299 181.572,207.198 173.157,207.503 172.852 C 208.374 171.982,221.905 170.882,227.641 171.215 L 230.505 171.382 230.358 173.413 C 230.278 174.530,229.906 178.344,229.532 181.889 C 228.513 191.545,228.685 193.488,230.679 194.858 L 231.444 195.384 238.444 195.256 C 249.368 195.057,252.318 194.454,254.151 192.046 C 255.188 190.683,255.231 190.412,255.997 180.222 C 258.140 151.708,260.093 131.194,262.133 115.779 C 262.562 112.539,262.969 109.429,263.039 108.867 L 263.165 107.845 261.749 107.490 C 259.414 106.903,211.769 95.333,211.689 95.333 C 211.649 95.333,211.437 95.808,211.218 96.389 M236.148 109.611 C 235.354 112.861,232.444 141.714,232.444 146.344 L 232.444 146.889 229.167 146.901 C 227.364 146.908,224.189 146.996,222.111 147.097 C 220.033 147.197,218.315 147.265,218.293 147.248 C 218.228 147.196,222.453 136.849,224.339 132.444 C 227.063 126.082,235.678 109.111,236.183 109.111 C 236.231 109.111,236.215 109.336,236.148 109.611 M330.000 110.151 C 323.936 110.772,314.960 113.247,313.151 114.795 C 311.993 115.786,311.787 116.166,311.548 117.745 C 311.443 118.435,310.897 121.250,310.335 124.000 C 309.313 128.995,305.604 148.627,303.215 161.695 C 301.711 169.918,301.699 169.771,303.892 170.068 C 307.350 170.536,312.357 170.022,313.787 169.053 C 314.656 168.465,314.542 168.814,316.036 162.172 L 317.222 156.900 318.222 156.776 C 338.375 154.264,353.961 134.573,348.002 119.154 C 345.422 112.479,338.935 109.235,330.000 110.151 M186.000 114.124 C 175.579 114.738,169.437 115.355,165.322 116.202 C 159.062 117.490,158.181 118.269,157.323 123.276 C 155.998 131.010,155.742 130.859,167.052 128.989 C 167.581 128.901,167.744 128.946,167.667 129.157 C 167.156 130.566,160.253 160.940,158.763 168.333 C 157.675 173.732,157.657 174.716,158.630 175.586 L 159.371 176.249 164.519 176.097 C 171.467 175.892,170.685 176.836,173.338 165.444 C 177.010 149.673,182.654 127.939,183.226 127.367 C 183.305 127.287,185.037 127.244,187.074 127.270 C 193.530 127.352,193.968 126.952,195.664 119.402 C 196.379 116.219,196.378 115.550,195.661 114.833 C 194.550 113.722,193.780 113.665,186.000 114.124 M286.444 116.595 C 280.380 117.217,271.405 119.691,269.595 121.240 C 268.438 122.231,268.231 122.611,267.992 124.190 C 267.887 124.880,267.342 127.694,266.779 130.444 C 265.757 135.439,262.049 155.072,259.659 168.139 C 258.155 176.362,258.143 176.216,260.336 176.512 C 263.795 176.980,268.801 176.467,270.231 175.498 C 271.100 174.909,270.986 175.258,272.480 168.617 L 273.667 163.345 274.667 163.220 C 294.819 160.708,310.405 141.017,304.446 125.598 C 301.866 118.924,295.380 115.679,286.444 116.595 M144.023 120.017 C 140.041 120.224,139.757 120.326,138.967 121.846 C 138.181 123.355,128.237 166.303,127.000 173.528 C 126.438 176.808,126.999 177.919,129.184 177.856 C 129.816 177.838,132.251 177.788,134.595 177.745 C 140.497 177.637,140.611 177.541,141.757 171.743 C 144.659 157.054,149.158 139.245,153.229 126.323 C 155.354 119.577,155.152 119.438,144.023 120.017 M122.556 122.651 C 120.714 122.964,119.508 124.189,119.106 126.153 C 118.595 128.653,116.897 135.790,113.988 147.667 C 112.371 154.267,110.527 161.817,109.889 164.444 L 108.729 169.222 104.976 170.585 C 102.911 171.334,101.199 171.927,101.170 171.902 C 101.087 171.832,102.981 162.735,103.996 158.333 C 106.000 149.641,109.026 138.039,111.239 130.570 C 112.405 126.633,112.393 126.803,111.573 125.983 L 110.923 125.333 105.765 125.333 C 97.877 125.333,98.350 124.994,96.574 131.927 C 91.119 153.225,87.333 171.387,87.333 176.265 C 87.333 179.083,87.870 179.924,91.100 182.162 C 95.587 185.272,97.232 185.480,103.831 183.774 C 107.671 182.781,115.991 180.686,117.111 180.430 C 119.173 179.958,118.552 181.798,126.448 152.778 C 130.373 138.356,133.729 126.122,133.906 125.593 C 134.302 124.413,134.010 123.615,133.005 123.133 C 131.925 122.616,124.720 122.283,122.556 122.651 M332.224 124.556 C 338.642 126.821,331.593 139.594,322.241 142.646 C 320.441 143.233,320.516 143.522,321.398 139.413 C 321.815 137.475,322.645 133.519,323.244 130.623 L 324.333 125.358 325.333 124.900 C 327.418 123.945,330.112 123.811,332.224 124.556 M288.669 131.001 C 295.087 133.265,288.038 146.038,278.685 149.090 C 276.885 149.678,276.961 149.967,277.843 145.858 C 278.259 143.919,279.090 139.964,279.689 137.068 L 280.778 131.802 281.778 131.344 C 283.863 130.390,286.556 130.255,288.669 131.001 M84.556 132.152 C 69.842 134.122,57.066 143.242,54.443 153.647 C 52.929 159.651,54.895 162.272,66.103 169.189 C 69.652 171.380,70.468 173.182,69.025 175.644 C 67.523 178.208,60.518 181.330,56.258 181.334 C 53.688 181.337,52.563 183.907,52.558 189.788 C 52.554 194.357,53.830 194.836,61.424 193.108 C 72.684 190.547,80.446 184.994,84.225 176.796 C 87.966 168.682,85.098 162.146,75.854 157.719 C 71.005 155.397,70.243 154.074,72.501 151.901 C 75.077 149.423,79.141 147.820,83.471 147.575 C 88.960 147.264,89.083 147.032,90.125 135.056 C 90.326 132.740,89.192 131.496,87.156 131.801 C 87.070 131.814,85.900 131.972,84.556 132.152 " stroke="none" fill="#f314c4" fill-rule="evenodd"></path></g></svg>